<svg xmlns="http://www.w3.org/2000/svg" viewBox="0 0 512 512"><rect width="512" height="512" rx="102" fill="#1c1917"/><g transform="translate(256 256) scale(.92) translate(-256 -256)"><path d="M112 187L113 188 118 200 146 269 152 282 155 288 154 290V291L128 265 101 239 100 240H99V374L101 375 102 376 107 375 125 372 138 371 155 366 172 362 184 358C201 351 221 340 231 333L233 332 238 336 254 354 266 367 265 368 255 375 245 382 230 389 202 402 190 407 172 412 139 420 124 423 89 424 55 425 54 424 53 423V305L52 188 54 187 55 186H110ZM400 325L399 324 394 312 366 243 360 230 357 224 358 222V221L384 247 411 273 412 272H413V138L411 137 410 136 405 137 387 140 374 141 357 146 340 150 328 154C311 161 291 172 281 179L279 180 274 176 258 158 246 145 247 144 257 137 267 130 282 123 310 110 322 105 340 100 373 92 388 89 423 88 457 87 458 88 459 89V207L460 324 458 325 457 326H402Z" fill="#16a34a"/><path d="M335 420L334 419 338 415 368 384 348 361 300 308 144 137 137 152 131 168C129 168 120 160 97 134 62 96 57 90 58 88L59 87 112 88 166 89 170 94 180 106 225 156 356 303 389 339 404 356 455 414 460 420 397 421H336Z" fill="#d4af37"/></g></svg>
